<svg xmlns:xlink="http://www.w3.org/1999/xlink" xmlns="http://www.w3.org/2000/svg" style="width:100%;height:100%;" viewBox="0 0 151 38" preserveAspectRatio="none" width="151" height="38"><defs><svg width="151" height="38" viewBox="0 0 151 38" fill="none" id="svg-1217489703_6560">
<rect width="151" height="38" fill="#FFFFFF"></rect>
<g clip-path="url(#svg-1217489703_6560_clip0_245_47)" fill="none">
<path d="M143.581 26.437C143.581 25.1885 143.946 24.3111 144.676 23.8046C145.419 23.2982 146.308 23.0449 147.344 23.0449C148.322 23.0449 149.17 23.2982 149.888 23.8046C150.607 24.3111 150.966 25.1885 150.966 26.437C150.966 27.6266 150.607 28.4864 149.888 29.0164C149.17 29.5464 148.322 29.8114 147.344 29.8114C146.308 29.8114 145.419 29.5464 144.676 29.0164C143.946 28.4864 143.581 27.6266 143.581 26.437Z" fill="#FF6816"></path>
<path d="M132.698 9C134.983 9 136.726 9.58302 137.928 10.7491C139.141 11.9151 139.747 13.7819 139.747 16.3495V29.3703H132.839V18.4873C132.839 16.9679 132.633 15.9138 132.221 15.3249C131.821 14.7242 131.22 14.4238 130.419 14.4238C129.3 14.4238 128.523 14.9126 128.087 15.8902C127.663 16.8678 127.451 18.2517 127.451 20.042V29.3703H120.525V18.4873C120.525 17.5215 120.437 16.7441 120.26 16.1552C120.096 15.5545 119.842 15.1187 119.501 14.8478C119.159 14.5652 118.729 14.4238 118.211 14.4238C117.422 14.4238 116.804 14.6653 116.356 15.1482C115.92 15.6193 115.614 16.3142 115.437 17.2329C115.261 18.1516 115.172 19.2764 115.172 20.6073V29.3703H108.264V9.35334H113.476L114.483 11.8268H114.678C115.031 11.285 115.484 10.802 116.038 10.378C116.603 9.95403 117.269 9.61835 118.034 9.37101C118.812 9.12367 119.695 9 120.684 9C122.157 9 123.37 9.24734 124.324 9.74202C125.278 10.2367 126.055 10.9198 126.656 11.7914H126.868C127.504 10.8963 128.323 10.2073 129.324 9.72435C130.325 9.24145 131.45 9 132.698 9Z" fill="#263959"></path>
<path d="M104.307 19.3176C104.307 20.9901 104.077 22.4742 103.618 23.7698C103.159 25.0654 102.493 26.1548 101.622 27.0382C100.75 27.9215 99.6957 28.5929 98.459 29.0522C97.2223 29.4998 95.8266 29.7236 94.2719 29.7236C92.8231 29.7236 91.4922 29.4998 90.2791 29.0522C89.0777 28.5929 88.0295 27.9215 87.1343 27.0382C86.2392 26.1548 85.5443 25.0654 85.0496 23.7698C84.5667 22.4742 84.3252 20.9901 84.3252 19.3176C84.3252 17.1033 84.7257 15.2306 85.5266 13.6995C86.3393 12.1683 87.4936 11.0023 88.9894 10.2014C90.497 9.40046 92.2931 9 94.3779 9C96.2977 9 98.0055 9.40046 99.5013 10.2014C100.997 11.0023 102.169 12.1683 103.017 13.6995C103.877 15.2306 104.307 17.1033 104.307 19.3176ZM91.3391 19.3176C91.3391 20.4601 91.4392 21.4259 91.6394 22.215C91.8397 22.9924 92.1577 23.5872 92.5935 23.9994C93.041 24.3999 93.6241 24.6001 94.3425 24.6001C95.061 24.6001 95.6322 24.3999 96.0562 23.9994C96.4803 23.5872 96.7865 22.9924 96.9749 22.215C97.1752 21.4259 97.2753 20.4601 97.2753 19.3176C97.2753 18.1752 97.1752 17.2211 96.9749 16.4556C96.7865 15.69 96.4744 15.1128 96.0386 14.7242C95.6146 14.3355 95.0374 14.1411 94.3072 14.1411C93.2589 14.1411 92.4993 14.5769 92.0281 15.4485C91.5688 16.3201 91.3391 17.6098 91.3391 19.3176Z" fill="#263959"></path>
<path d="M74.8032 29.7236C72.7774 29.7236 71.0166 29.3644 69.5207 28.6459C68.0249 27.9157 66.8648 26.7967 66.0403 25.2891C65.2276 23.7698 64.8213 21.8264 64.8213 19.459C64.8213 17.0327 65.2747 15.0481 66.1816 13.5051C67.1003 11.9622 68.3547 10.8256 69.9447 10.0954C71.5348 9.36512 73.3368 9 75.3509 9C76.5758 9 77.736 9.13545 78.8313 9.40635C79.9385 9.67724 80.9632 10.0482 81.9054 10.5194L79.8737 15.6252C79.0492 15.2601 78.2778 14.9715 77.5593 14.7595C76.8526 14.5357 76.1165 14.4238 75.3509 14.4238C74.656 14.4238 74.0435 14.6064 73.5135 14.9715C72.9835 15.3366 72.5713 15.8902 72.2768 16.6322C71.9824 17.3625 71.8351 18.2929 71.8351 19.4236C71.8351 20.5779 71.9824 21.5084 72.2768 22.215C72.583 22.9217 73.0012 23.4341 73.5312 23.7521C74.073 24.0701 74.6913 24.2291 75.3862 24.2291C76.3874 24.2291 77.3826 24.076 78.372 23.7698C79.3731 23.4517 80.3213 23.016 81.2164 22.4624V27.9569C80.3919 28.4987 79.4615 28.9286 78.425 29.2466C77.3885 29.5646 76.1813 29.7236 74.8032 29.7236Z" fill="#263959"></path>
<path d="M54.6271 9C56.8414 9 58.5787 9.88925 59.8389 11.6677C61.0992 13.4345 61.7293 15.9844 61.7293 19.3176C61.7293 21.5908 61.4113 23.5047 60.7753 25.0595C60.1393 26.6024 59.2677 27.7684 58.1606 28.5576C57.0652 29.3349 55.8167 29.7236 54.4151 29.7236C53.4729 29.7236 52.672 29.6058 52.0124 29.3703C51.3646 29.1347 50.8228 28.8402 50.387 28.4869C49.963 28.1335 49.6038 27.7743 49.3093 27.4092H49.0973C49.1562 27.8685 49.2033 28.3632 49.2386 28.8932C49.2858 29.4233 49.3093 30.0416 49.3093 30.7483V38.0625H42.4014V9.35334H48.0196L48.9913 11.8974H49.3093C49.6391 11.3792 50.0396 10.9022 50.5107 10.4664C50.9818 10.0188 51.553 9.66546 52.2244 9.40635C52.9075 9.13545 53.7084 9 54.6271 9ZM52.0301 14.4238C51.3587 14.4238 50.8287 14.5828 50.44 14.9008C50.0513 15.2188 49.7687 15.7018 49.592 16.3495C49.4271 16.9856 49.3329 17.7806 49.3093 18.7346V19.2823C49.3093 20.3423 49.3918 21.2375 49.5567 21.9677C49.7215 22.6862 50.0042 23.2339 50.4047 23.6108C50.8051 23.9759 51.3587 24.1584 52.0654 24.1584C52.6425 24.1584 53.1254 23.9935 53.5141 23.6638C53.9028 23.334 54.1972 22.8098 54.3975 22.0914C54.5977 21.3729 54.6978 20.4248 54.6978 19.247C54.6978 17.492 54.4681 16.2494 54.0088 15.5192C53.5612 14.7889 52.9016 14.4238 52.0301 14.4238Z" fill="#1777F1"></path>
<path d="M29.628 9C32.1603 9 34.139 9.63013 35.5641 10.8904C36.9893 12.1389 37.7019 13.9232 37.7019 16.2435V29.3703H32.9141L31.589 26.7202H31.4477C30.8823 27.4269 30.2993 28.004 29.6986 28.4516C29.1097 28.8874 28.4325 29.2054 27.6669 29.4056C26.9013 29.6176 25.965 29.7236 24.8578 29.7236C23.7036 29.7236 22.6671 29.488 21.7484 29.0169C20.8297 28.5458 20.1054 27.8332 19.5753 26.8792C19.0453 25.9252 18.7803 24.7179 18.7803 23.2574C18.7803 21.1138 19.5223 19.5237 21.0064 18.4873C22.4904 17.4508 24.6399 16.8678 27.4549 16.7382L30.794 16.6322V16.3495C30.794 15.4544 30.5702 14.8184 30.1226 14.4415C29.6868 14.0646 29.0979 13.8761 28.3559 13.8761C27.5668 13.8761 26.6834 14.0175 25.7058 14.3001C24.74 14.571 23.7683 14.9244 22.7908 15.3602L20.7944 10.802C21.9486 10.2131 23.256 9.76558 24.7165 9.45935C26.177 9.15312 27.8141 9 29.628 9ZM30.8293 20.4307L29.2393 20.5013C27.9672 20.5484 27.0721 20.7722 26.5539 21.1727C26.0474 21.5614 25.7942 22.1208 25.7942 22.8511C25.7942 23.5342 25.9767 24.0407 26.3419 24.3704C26.707 24.6885 27.1899 24.8475 27.7906 24.8475C28.6268 24.8475 29.3394 24.5824 29.9283 24.0524C30.529 23.5224 30.8293 22.8334 30.8293 21.9854V20.4307Z" fill="#1777F1"></path>
<path d="M16.5718 29.3704H0V25.4306L8.2859 14.636H0.477014V9.35352H16.1831V13.629L8.25057 24.0879H16.5718V29.3704Z" fill="#1777F1"></path>
</g>
<defs>
<clipPath id="svg-1217489703_6560_clip0_245_47">
<rect width="151" height="29" fill="white" transform="translate(0 9)"></rect>
</clipPath>
</defs>
</svg></defs><use href="#svg-1217489703_6560"></use></svg>